<?xml version="1.0" encoding="UTF-8"?>
<svg id="Layer_2" data-name="Layer 2" xmlns="http://www.w3.org/2000/svg" viewBox="0 0 612.18 128.25">
  <defs>
    <style>
      .cls-1 {
        fill: #fff;
      }
    </style>
  </defs>
  <g id="Layer_1-2" data-name="Layer 1">
    <g>
      <g>
        <path class="cls-1" d="M432.61,43.48v-19h9.56c1.11,0,2.05.19,2.84.55.78.37,1.39.9,1.81,1.58.42.68.64,1.5.64,2.44,0,.72-.12,1.38-.37,1.99s-.6,1.12-1.05,1.54c-.45.42-.98.72-1.59.93v.11c.65.15,1.24.41,1.77.78.54.37.96.87,1.29,1.51.32.64.48,1.45.48,2.42,0,1.26-.25,2.26-.76,3.02s-1.2,1.3-2.06,1.63c-.87.33-1.87.5-2.99.5h-9.56ZM434.8,32.79h7.04c.66,0,1.25-.13,1.76-.4s.91-.65,1.21-1.15c.29-.5.44-1.07.44-1.72,0-1.07-.29-1.87-.87-2.38-.58-.52-1.35-.78-2.31-.78h-7.26v6.43ZM434.8,41.6h7.51c1.03,0,1.87-.26,2.51-.79s.96-1.42.96-2.67c0-.79-.14-1.45-.42-1.97-.28-.52-.68-.9-1.22-1.14-.54-.24-1.21-.36-2.02-.36h-7.31v6.93Z"/>
        <path class="cls-1" d="M451.87,43.48v-19h9.97c1.26,0,2.29.24,3.12.71.82.47,1.44,1.11,1.86,1.92.42.81.62,1.74.62,2.77,0,1.35-.31,2.49-.93,3.42s-1.44,1.59-2.45,1.98l4.04,8.2h-2.41l-3.79-7.81h-7.84v7.81h-2.19ZM454.06,33.79h7.56c1.13,0,2.01-.35,2.66-1.04.65-.69.97-1.65.97-2.87,0-.74-.14-1.37-.42-1.88-.28-.52-.68-.92-1.22-1.21-.54-.29-1.2-.43-1.99-.43h-7.56v7.42Z"/>
        <path class="cls-1" d="M472.14,43.48v-19h14.54v1.88h-12.36v6.43h11.14v1.91h-11.14v6.9h12.52v1.88h-14.71Z"/>
        <path class="cls-1" d="M488.66,43.48l7.56-19h2.94l7.59,19h-2.36l-1.99-5.01h-9.53l-1.97,5.01h-2.24ZM493.61,36.59h8.03l-2.49-6.34c-.06-.15-.14-.37-.25-.67-.11-.29-.24-.63-.37-1.01-.14-.38-.28-.76-.42-1.15s-.27-.74-.4-1.05h-.19c-.11.35-.25.77-.43,1.25-.18.48-.35.96-.53,1.43-.18.47-.33.87-.46,1.21l-2.49,6.34Z"/>
        <path class="cls-1" d="M511.7,43.48v-17.09h-6.73v-1.91h15.71v1.91h-6.79v17.09h-2.19Z"/>
        <path class="cls-1" d="M523.64,43.48v-19h2.19v8.34h11.03v-8.34h2.19v19h-2.19v-8.75h-11.03v8.75h-2.19Z"/>
        <path class="cls-1" d="M544.06,43.48v-19h14.54v1.88h-12.36v6.43h11.14v1.91h-11.14v6.9h12.52v1.88h-14.71Z"/>
        <path class="cls-1" d="M562.87,43.48v-2.6h2.33v2.6h-2.33Z"/>
        <path class="cls-1" d="M432.61,73.46v-19h2.19v8.34h11.03v-8.34h2.19v19h-2.19v-8.75h-11.03v8.75h-2.19Z"/>
        <path class="cls-1" d="M453.03,73.46v-19h14.54v1.88h-12.36v6.43h11.14v1.91h-11.14v6.9h12.52v1.88h-14.71Z"/>
        <path class="cls-1" d="M469.54,73.46l7.56-19h2.94l7.59,19h-2.36l-1.99-5.01h-9.53l-1.97,5.01h-2.24ZM474.5,66.56h8.03l-2.49-6.34c-.06-.15-.14-.37-.25-.67-.11-.29-.24-.63-.37-1.01-.14-.38-.28-.76-.42-1.15s-.27-.74-.4-1.05h-.19c-.11.35-.25.77-.43,1.25-.18.48-.35.96-.53,1.43-.18.47-.33.87-.46,1.21l-2.49,6.34Z"/>
        <path class="cls-1" d="M490.37,73.46v-19h2.19v17.09h9.39v1.91h-11.58Z"/>
        <path class="cls-1" d="M504.78,73.46v-2.6h2.33v2.6h-2.33Z"/>
        <path class="cls-1" d="M437.27,103.43v-17.09h-6.73v-1.91h15.71v1.91h-6.79v17.09h-2.19Z"/>
        <path class="cls-1" d="M449.21,103.43v-19h9.97c1.26,0,2.29.24,3.12.71.82.47,1.44,1.11,1.86,1.92.42.81.62,1.74.62,2.77,0,1.35-.31,2.49-.93,3.42s-1.44,1.59-2.45,1.98l4.04,8.2h-2.41l-3.79-7.81h-7.84v7.81h-2.19ZM451.4,93.74h7.56c1.13,0,2.01-.35,2.66-1.04.65-.69.97-1.65.97-2.87,0-.74-.14-1.37-.42-1.88-.28-.52-.68-.92-1.22-1.21-.54-.29-1.2-.43-1.99-.43h-7.56v7.42Z"/>
        <path class="cls-1" d="M467.19,103.43l7.56-19h2.94l7.59,19h-2.36l-1.99-5.01h-9.53l-1.97,5.01h-2.24ZM472.15,96.54h8.03l-2.49-6.34c-.06-.15-.14-.37-.25-.67-.11-.29-.24-.63-.37-1.01-.14-.38-.28-.76-.42-1.15s-.27-.74-.4-1.05h-.19c-.11.35-.25.77-.43,1.25-.18.48-.35.96-.53,1.43-.18.47-.33.87-.46,1.21l-2.49,6.34Z"/>
        <path class="cls-1" d="M488.02,103.43v-19h2.13l9.72,13.13c.11.13.25.3.4.53.16.22.31.45.47.68.16.23.29.44.4.62h.14v-14.96h2.13v19h-1.91l-9.92-13.41c-.13-.18-.33-.47-.61-.87-.28-.4-.52-.73-.72-1.01h-.11v15.29h-2.13Z"/>
        <path class="cls-1" d="M515.36,103.76c-1.02,0-2-.09-2.96-.28-.96-.18-1.81-.5-2.55-.94s-1.32-1.02-1.75-1.75c-.42-.72-.64-1.62-.64-2.69v-.26c0-.08,0-.17.03-.26h2.19c0,.07,0,.18-.01.3,0,.13-.01.24-.01.33,0,.81.24,1.49.73,2.04s1.15.95,2,1.22c.84.27,1.79.4,2.84.4.35,0,.77-.02,1.26-.07s.99-.14,1.5-.28c.51-.14.97-.33,1.4-.58s.77-.57,1.04-.97c.27-.4.4-.89.4-1.48,0-.68-.18-1.25-.55-1.69s-.85-.81-1.45-1.09c-.6-.29-1.29-.54-2.06-.76-.78-.22-1.57-.43-2.38-.64-.81-.2-1.6-.43-2.37-.69-.77-.26-1.46-.58-2.06-.97s-1.09-.87-1.45-1.45-.54-1.3-.54-2.15c0-.74.15-1.41.44-2.02.29-.61.75-1.13,1.36-1.57.61-.43,1.38-.77,2.33-1.01.94-.24,2.06-.36,3.35-.36.98,0,1.89.1,2.74.3s1.6.52,2.24.96c.65.43,1.15.98,1.51,1.63.36.66.54,1.45.54,2.37v.33h-2.16v-.47c0-.68-.21-1.26-.64-1.73s-.99-.84-1.7-1.11c-.71-.27-1.52-.4-2.42-.4-1.24,0-2.25.12-3.05.37s-1.38.59-1.77,1.02c-.39.43-.58.92-.58,1.46,0,.63.18,1.15.55,1.56.37.42.86.76,1.47,1.03.61.27,1.3.51,2.06.72.77.21,1.56.42,2.37.62s1.6.44,2.37.71c.77.27,1.46.6,2.08,1,.62.4,1.11.89,1.47,1.48.36.59.54,1.32.54,2.19,0,1.31-.33,2.38-.98,3.21-.66.83-1.56,1.44-2.7,1.83-1.15.39-2.47.58-3.99.58Z"/>
        <path class="cls-1" d="M527.13,103.43v-19h13.38v1.88h-11.19v6.57h10.19v1.88h-10.19v8.67h-2.19Z"/>
        <path class="cls-1" d="M552.56,103.76c-1.96,0-3.64-.36-5.06-1.09s-2.5-1.82-3.25-3.28c-.76-1.46-1.14-3.28-1.14-5.46s.38-4.02,1.14-5.47c.76-1.45,1.84-2.54,3.25-3.27,1.41-.73,3.1-1.09,5.06-1.09s3.67.37,5.08,1.09c1.41.73,2.49,1.82,3.24,3.27s1.12,3.27,1.12,5.47-.37,4-1.12,5.46c-.75,1.46-1.83,2.55-3.24,3.28-1.41.73-3.11,1.09-5.08,1.09ZM552.56,101.88c1.09,0,2.08-.14,2.96-.43s1.64-.74,2.27-1.37,1.11-1.42,1.46-2.38c.34-.96.51-2.11.51-3.46v-.58c0-1.37-.17-2.53-.51-3.49-.34-.96-.83-1.75-1.46-2.38s-1.38-1.08-2.27-1.37-1.87-.43-2.96-.43-2.07.14-2.95.43c-.88.29-1.63.74-2.26,1.37s-1.11,1.42-1.45,2.38c-.34.96-.51,2.12-.51,3.49v.58c0,1.35.17,2.5.51,3.46.34.96.83,1.75,1.45,2.38s1.38,1.08,2.26,1.37c.88.29,1.86.43,2.95.43Z"/>
        <path class="cls-1" d="M566.05,103.43v-19h9.97c1.26,0,2.29.24,3.12.71.82.47,1.44,1.11,1.86,1.92.42.81.62,1.74.62,2.77,0,1.35-.31,2.49-.93,3.42s-1.44,1.59-2.45,1.98l4.04,8.2h-2.41l-3.79-7.81h-7.84v7.81h-2.19ZM568.24,93.74h7.56c1.13,0,2.01-.35,2.66-1.04.65-.69.97-1.65.97-2.87,0-.74-.14-1.37-.42-1.88-.28-.52-.68-.92-1.22-1.21-.54-.29-1.2-.43-1.99-.43h-7.56v7.42Z"/>
        <path class="cls-1" d="M586.33,103.43v-19h3.32l4.96,13.16c.11.31.22.65.33,1.01.11.36.22.7.32,1.03.1.32.18.59.24.82h.17c.07-.26.17-.56.28-.91.11-.35.22-.7.32-1.04s.2-.64.29-.9l4.96-13.16h3.3v19h-2.19v-11.83c0-.46,0-.98.03-1.56.02-.58.03-1.15.04-1.7,0-.55.01-.98.01-1.27h-.19c-.07.28-.17.61-.29.98-.12.38-.24.76-.36,1.15-.12.39-.24.75-.35,1.08l-5.1,13.16h-1.77l-5.07-13.16c-.11-.3-.22-.62-.33-.97-.11-.35-.22-.72-.33-1.11-.11-.39-.22-.77-.33-1.14h-.19c.02.37.03.83.04,1.39,0,.55.02,1.11.03,1.66,0,.55.01,1.05.01,1.5v11.83h-2.13Z"/>
        <path class="cls-1" d="M609.85,103.43v-2.6h2.33v2.6h-2.33Z"/>
      </g>
      <g>
        <g>
          <g>
            <path class="cls-1" d="M362.77,127.16l-14.11-.08c2.2-1.34,3.85-2.47,3.85-5.02v-22.66c-.02-4.44-3.83-7.18-8.15-6.71-3.35.36-6.46,2.52-8.54,5.36v23.95c0,2.76,1.95,3.58,4.49,5.12l-14.97-.03c2.41-1.49,4.24-2.39,4.25-5.1l.12-23.72c.01-2.97-1.36-4.53-4.69-5.69l10.55-3.62.21,7.36c3.09-4.53,7.66-7.53,13.17-7.35,4.68.15,8.49,3.05,9.22,7.62,4.49-6.74,13.27-10.05,19.16-5.75,2.49,1.82,3.98,5.35,4.01,8.51l.21,23.18c.02,2.47,2.09,3.13,4.24,4.58h-14.74c2.27-1.4,4.22-2.11,4.21-4.67l-.03-22.91c0-4.64-4.08-7.4-8.49-6.79-3.44.48-6.29,2.74-8.08,5.59l.09,24.01c.48,2.36,1.51,3.1,4.01,4.84Z"/>
            <path class="cls-1" d="M260,119.78c0,2.9,1.81,3.83,4.98,4.9l-10.09,3.57-.68-7.8c-2.98,4.76-7.25,7.61-12.62,7.72-5.82.12-10.94-4.13-11-10.24l-.22-21.56c-.03-3.08-1.69-4.1-4.82-5.47l10.9-1.83.08,27.36c.01,4.91,3.72,8.46,8.65,7.98,3.29-.32,7.5-2.58,8.64-5.96l.13-22.22c.02-2.91-1.75-4.1-4.86-5.21l10.9-1.99v30.75Z"/>
            <path class="cls-1" d="M213.83,127.07l-17.85-.06c3.14-1.32,5.51-2.92,5.51-6.49l.03-45.3c-3.9-.1-7.75.07-11.17,1.41-4.21,1.64-4.87,5.4-7.74,9.37-.09-4.31.6-8.09,1.19-12.5h42.4c.62,4.35,1.32,8.12,1.1,12.56-2.77-4.18-3.61-8.03-8.11-9.56-3.32-1.12-7.03-1.37-10.85-1.32l.05,45.36c.24,3.44,1.99,4.69,5.45,6.53Z"/>
            <path class="cls-1" d="M318.03,119.8c0,3.07,1.87,3.87,5.09,4.9l-9.93,3.53-1-7.85c-2.81,4.71-7.07,7.65-12.42,7.79-5.9.15-11.09-4.05-11.14-10.23l-.19-21.3c-.03-3.17-1.54-4.31-4.94-5.84l10.91-1.78.08,27.53c0,2.32,1.32,4.95,2.83,6.17,4.28,3.48,11.23,1.44,14.52-4.06l.11-22.85c.01-2.95-2.13-3.58-4.93-4.93l10.95-1.89.06,30.81Z"/>
            <path class="cls-1" d="M267.21,127.04c2.42-1.43,4.2-2.41,4.2-5.17v-43.58c0-2.74-2-3.64-4.53-5.11l10.75-3.26.05,52.48c0,2.57,2.33,3.26,4.48,4.7l-14.96-.06Z"/>
          </g>
          <g>
            <path class="cls-1" d="M40.29,36.06c3.63,3.67,4.59,8.51,3.23,13.67-2.06,7.79-10.45,11.37-18.43,11.36l-24.96-.02c3.25-1.94,5.52-3.24,5.52-7.07l.02-42.8c0-3.68-2.15-5.05-5.66-6.88l24.04-.13c7.37-.04,15.6,3.78,16.66,11.42s-4.14,12.79-12.03,15.06c4.27.91,8.43,2.17,11.62,5.39ZM33.51,18.05c.08-6.42-3.78-11.79-10.14-11.94l-10.53-.26v24.25s10.03-.17,10.03-.17c6.45-.11,10.56-5.38,10.64-11.87ZM36.45,46.08c.22-7.28-4.02-13.02-11.29-13.82-4.02-.45-8.26-.37-12.32-.36l.03,27.42,11.13-.13c7.45-.09,12.23-5.59,12.46-13.11Z"/>
            <path class="cls-1" d="M206.37,32.39c0-5.52-4.71-8.9-9.72-7.99-3.69.68-7.18,2.91-9.16,6.03l.03,24.28c0,3.3,1.83,4.57,4.75,6.36l-15.96-.04c2.82-1.66,4.72-2.57,4.72-5.76l.03-46.04c0-2.99-2.01-4.13-4.95-5.63L187.5.03l-.05,28.13c3.57-5.12,8.95-8.26,15.17-7.82,5.63.4,9.99,4.61,10.06,10.51l.3,24.88c.03,2.85,2.3,3.62,4.62,5.36l-15.43-.02c2.17-1.71,4.2-2.58,4.2-5.34v-23.34Z"/>
            <path class="cls-1" d="M267.04,31.11c.85-2.31,1.39-4.69.7-7-.36-1.2-2.81-1.27-4.34-2.64l13.54-.03c-3.32,1.93-5.29,3.16-6.64,6.44l-12.16,32.88-.82,1.06c-.16.21-.94-.35-1.06-.65l-10.32-26.35-11.07,27.93-13.56-35.53c-1.09-2.86-2.87-3.86-5.67-5.96h16.04s-3.19,2.4-3.19,2.4c-.74.55-.63,2.94-.29,3.88l9.02,24.53,7.55-19.86c-.59-2.71-1.75-5.67-3.38-8.01-.73-1.05-2.17-1.35-3.81-2.81l15.78-.13c-.56,1.06-.95,1.17-2.26,1.65-1.15.42-1.81,2.9-1.26,4.34l9.51,24.91,7.7-21.03Z"/>
            <path class="cls-1" d="M378.28,61.14c-2.69.06-5.34-1.42-6.81-3.47l-12.47-17.44-3.34,2.99.15,11.95c.04,2.85,1.62,4.02,4.46,5.78l-15.75.07c2.55-1.72,4.74-2.57,4.75-5.63l.05-45.33c0-3.46-1.42-4.87-5.18-6.38l11.56-3.68v41.12s14.27-13.35,14.27-13.35c1.22-1.15,1.85-3.49.87-4.5l-3.44-1.85,15.58.12c-3.57,1.78-6.23,2.64-8.67,4.88l-10.59,9.71,15.22,20.32c1.63,2.17,3.79,2.89,6.34,4.54l-7,.15Z"/>
            <path class="cls-1" d="M309.72,55.02c-7.44,9.84-22.74,9.55-29.96-.1-6.23-8.33-5.93-20.39.83-28.3,7.25-8.48,21.29-8.62,28.53-.03,6.64,7.88,6.95,20.03.6,28.43ZM304.61,29.14c-1.81-4.37-5.45-7.04-9.8-7.07-12.12-.08-15.44,19.15-9.6,31.97,2.04,4.48,5.99,6.7,10.62,6.35,11.45-.86,13.54-19.76,8.78-31.24Z"/>
            <path class="cls-1" d="M123.99,62.13c-4.56-.1-8.18-2.65-9.32-6.15-2.73-8.43,4.23-12.72,12.54-15.53l9.7-3.29-.2-6.44c-.13-4.19-3.34-6.76-7.25-7.18-5.58-.59-10.42,2.86-12.16,7.97-.12.35-.79,1.09-1.08.98-1.91-.68,1.23-10.14,10.55-11.81,4.1-.74,8.39-.57,11.93,1.89,2.84,1.98,4.53,5.63,4.55,9.23l.13,23.89c0,.98,1.73,2.61,2.59,2.49,1.05-.15,2.44-.96,4.22-1.85-.68,4.02-5.17,6.53-9.11,5.46-3-.82-4.08-3.77-4.14-6.74-3.39,4.29-7.45,7.21-12.95,7.1ZM129.18,58.07c3.18-.62,5.92-2.79,7.7-5.09l-.03-14.31c-7.87,3.35-17.49,5.78-15.69,14.39.77,3.67,3.9,5.81,8.03,5Z"/>
            <path class="cls-1" d="M95.88,57.16c6.44.32,9.9-3.05,13.71-8.35-.97,8.72-9.26,14.02-17.53,13.32-6.54-.55-11.84-4.27-14.47-10.18-3.02-6.78-2.99-14.22.03-21.04,4.51-10.17,17.26-14,26.31-7.35,4.03,2.96,5.4,8.09,5.52,13.06l-27.46.05c-.77,9.97,3.44,19.97,13.89,20.49ZM102.31,34.85c.27-4.29-.59-7.52-2.91-10.43-4.49-3.97-11.29-2.74-14.46,2.36-1.54,2.49-2.44,5.14-2.85,8.1l20.21-.03Z"/>
            <path class="cls-1" d="M164.22,57.36c5.79,3.53,10.01-3.23,10.18-3.13l.67.39c1.13.65-6.55,11.72-15.91,6.1-2.43-1.46-3.84-4.68-3.85-7.67l-.06-29.5-6.22-.45c5.83-3.21,9.27-6.63,12.13-13.36,1.08,4.23.54,7.73.57,11.54l12.06-.02-.24,2.13-11.78-.04v28.71c0,1.79.91,4.37,2.44,5.31Z"/>
            <path class="cls-1" d="M59.24,34.96c-.47,7.03-.36,13.8-.15,20.54.09,3.01,2.27,3.88,5.18,5.43l-16.35.14c2.52-1.75,4.52-2.88,4.53-5.94l.02-25.35c0-3.01-2.1-4.39-4.95-5.7l11.1-3.84.08,10.87c1.55-3.43,2.81-6.36,5.37-8.56,2.37-2.04,6.31-3.35,9.02-1.31,1.65,1.25.62,5.62-1.19,6.22-2.76-.72-5.34-2.38-8-.76-2.5,1.53-4.45,4.85-4.68,8.27Z"/>
            <path class="cls-1" d="M328.76,36.04v19.13c0,3.06,2.03,4.13,5.07,5.75l-16.34.1c2.64-1.67,4.65-2.74,4.65-5.89l.06-24.95c0-3.2-1.95-4.67-4.81-6.2l10.96-3.72.07,10.55c2.39-7.83,10.51-13.29,14.5-9.49,1.58,1.51.41,5.54-1.58,6.22-3.72-2.27-8.13-2.36-10.51,1.73-.97,1.68-2.09,4.39-2.09,6.77Z"/>
          </g>
        </g>
        <g>
          <path class="cls-1" d="M172.73,81.11c-9.72,14.44-26.22,22.33-43.51,18.53-6.85-1.51-13.04-4.32-19.52-7.01l-16.88-7c-18.75-6.14-32.99-2.32-48.65,9.16,6.99-8.37,17.05-13.55,27.64-15.23,8.31-1.32,16.4,0,24.24,2.69,6.47,2.22,12.23,5.46,18.58,7.88l13.16,5.03c10.55,3.18,21.42,2.02,31.03-3.35,5.2-2.91,9.24-6.7,13.91-10.7Z"/>
          <path class="cls-1" d="M129.29,88c14.14.84,26.45-4.19,37.87-13.47-7.94,12.7-23.86,18.3-37.87,13.47Z"/>
        </g>
      </g>
      <rect class="cls-1" x="406.79" y="12.12" width="2" height="104"/>
    </g>
  </g>
</svg>